<?xml version="1.0" encoding="UTF-8" standalone="no"?>
<!DOCTYPE svg PUBLIC "-//W3C//DTD SVG 1.1//EN"
 "http://www.w3.org/Graphics/SVG/1.1/DTD/svg11.dtd">
<!-- Generated by graphviz version 2.40.1 (20161225.0304)
 -->
<!-- Title: %3 Pages: 1 -->
<svg width="829pt" height="404pt"
 viewBox="0.00 0.00 829.17 404.00" xmlns="http://www.w3.org/2000/svg" xmlns:xlink="http://www.w3.org/1999/xlink">
<g id="graph0" class="graph" transform="scale(1 1) rotate(0) translate(4 400)">
<title>%3</title>
<polygon fill="#ffffff" stroke="transparent" points="-4,4 -4,-400 825.1678,-400 825.1678,4 -4,4"/>
<!-- inputnode (utility) -->
<g id="node1" class="node">
<title>inputnode (utility)</title>
<ellipse fill="none" stroke="#000000" cx="534.1282" cy="-378" rx="94.7833" ry="18"/>
<text text-anchor="middle" x="534.1282" y="-374.3" font-family="Times,serif" font-size="14.00" fill="#000000">inputnode (utility)</text>
</g>
<!-- split_desc (templateflow) -->
<g id="node2" class="node">
<title>split_desc (templateflow)</title>
<ellipse fill="none" stroke="#000000" cx="239.1282" cy="-306" rx="128.0773" ry="18"/>
<text text-anchor="middle" x="239.1282" y="-302.3" font-family="Times,serif" font-size="14.00" fill="#000000">split_desc (templateflow)</text>
</g>
<!-- inputnode (utility)&#45;&gt;split_desc (templateflow) -->
<g id="edge1" class="edge">
<title>inputnode (utility)&#45;&gt;split_desc (templateflow)</title>
<path fill="none" stroke="#000000" d="M475.8457,-363.7751C429.1708,-352.3833 363.404,-336.3317 313.033,-324.0378"/>
<polygon fill="#000000" stroke="#000000" points="313.719,-320.6026 303.1743,-321.6316 312.0592,-327.4029 313.719,-320.6026"/>
</g>
<!-- poutputnode (utility) -->
<g id="node3" class="node">
<title>poutputnode (utility)</title>
<ellipse fill="none" stroke="#000000" cx="486.1282" cy="-90" rx="107.4815" ry="18"/>
<text text-anchor="middle" x="486.1282" y="-86.3" font-family="Times,serif" font-size="14.00" fill="#000000">poutputnode (utility)</text>
</g>
<!-- inputnode (utility)&#45;&gt;poutputnode (utility) -->
<g id="edge2" class="edge">
<title>inputnode (utility)&#45;&gt;poutputnode (utility)</title>
<path fill="none" stroke="#000000" d="M580.3759,-362.231C676.4805,-327.0905 882.4791,-238.0112 803.1282,-144 789.1073,-127.3887 674.8133,-111.0023 587.4459,-100.7156"/>
<polygon fill="#000000" stroke="#000000" points="587.8097,-97.2343 577.4719,-99.5537 586.9997,-104.1873 587.8097,-97.2343"/>
</g>
<!-- trunc_mov (ants) -->
<g id="node4" class="node">
<title>trunc_mov (ants)</title>
<ellipse fill="none" stroke="#000000" cx="475.1282" cy="-306" rx="90.1842" ry="18"/>
<text text-anchor="middle" x="475.1282" y="-302.3" font-family="Times,serif" font-size="14.00" fill="#000000">trunc_mov (ants)</text>
</g>
<!-- inputnode (utility)&#45;&gt;trunc_mov (ants) -->
<g id="edge3" class="edge">
<title>inputnode (utility)&#45;&gt;trunc_mov (ants)</title>
<path fill="none" stroke="#000000" d="M519.5439,-360.2022C512.5234,-351.6348 503.9734,-341.2009 496.2567,-331.7839"/>
<polygon fill="#000000" stroke="#000000" points="498.7946,-329.359 489.7492,-323.8425 493.3802,-333.7957 498.7946,-329.359"/>
</g>
<!-- registration (norm) -->
<g id="node5" class="node">
<title>registration (norm)</title>
<ellipse fill="none" stroke="#000000" cx="491.1282" cy="-234" rx="100.1823" ry="18"/>
<text text-anchor="middle" x="491.1282" y="-230.3" font-family="Times,serif" font-size="14.00" fill="#000000">registration (norm)</text>
</g>
<!-- inputnode (utility)&#45;&gt;registration (norm) -->
<g id="edge4" class="edge">
<title>inputnode (utility)&#45;&gt;registration (norm)</title>
<path fill="none" stroke="#000000" d="M551.9877,-360.0139C568.0489,-341.5568 587.2537,-312.1984 574.1282,-288 566.8026,-274.4944 554.4755,-263.8371 541.5321,-255.6855"/>
<polygon fill="#000000" stroke="#000000" points="542.9291,-252.4487 532.5267,-250.4382 539.4049,-258.4969 542.9291,-252.4487"/>
</g>
<!-- tpl_moving (fixes) -->
<g id="node6" class="node">
<title>tpl_moving (fixes)</title>
<ellipse fill="none" stroke="#000000" cx="683.1282" cy="-162" rx="94.4839" ry="18"/>
<text text-anchor="middle" x="683.1282" y="-158.3" font-family="Times,serif" font-size="14.00" fill="#000000">tpl_moving (fixes)</text>
</g>
<!-- inputnode (utility)&#45;&gt;tpl_moving (fixes) -->
<g id="edge5" class="edge">
<title>inputnode (utility)&#45;&gt;tpl_moving (fixes)</title>
<path fill="none" stroke="#000000" d="M566.9157,-360.9184C582.2322,-351.6443 599.7699,-338.9995 612.1282,-324 645.6619,-283.2996 666.1559,-224.3022 676.0143,-189.8725"/>
<polygon fill="#000000" stroke="#000000" points="679.4459,-190.5946 678.735,-180.0237 672.6986,-188.7307 679.4459,-190.5946"/>
</g>
<!-- std_mask (fixes) -->
<g id="node7" class="node">
<title>std_mask (fixes)</title>
<ellipse fill="none" stroke="#000000" cx="110.1282" cy="-162" rx="87.1846" ry="18"/>
<text text-anchor="middle" x="110.1282" y="-158.3" font-family="Times,serif" font-size="14.00" fill="#000000">std_mask (fixes)</text>
</g>
<!-- inputnode (utility)&#45;&gt;std_mask (fixes) -->
<g id="edge6" class="edge">
<title>inputnode (utility)&#45;&gt;std_mask (fixes)</title>
<path fill="none" stroke="#000000" d="M442.6431,-373.205C320.0005,-365.8258 114.9471,-349.7764 92.1282,-324 59.2949,-286.9113 79.7774,-224.8024 96.0157,-189.2291"/>
<polygon fill="#000000" stroke="#000000" points="99.2985,-190.4758 100.4354,-179.9421 92.9778,-187.4677 99.2985,-190.4758"/>
</g>
<!-- std_dseg (fixes) -->
<g id="node8" class="node">
<title>std_dseg (fixes)</title>
<ellipse fill="none" stroke="#000000" cx="299.1282" cy="-162" rx="83.6854" ry="18"/>
<text text-anchor="middle" x="299.1282" y="-158.3" font-family="Times,serif" font-size="14.00" fill="#000000">std_dseg (fixes)</text>
</g>
<!-- inputnode (utility)&#45;&gt;std_dseg (fixes) -->
<g id="edge7" class="edge">
<title>inputnode (utility)&#45;&gt;std_dseg (fixes)</title>
<path fill="none" stroke="#000000" d="M442.9328,-372.9421C322.8635,-365.3352 124.294,-349.109 102.1282,-324 83.3022,-302.6742 109.198,-227.4681 120.1282,-216 135.1912,-200.1958 183.8498,-186.0904 226.6376,-176.2623"/>
<polygon fill="#000000" stroke="#000000" points="227.521,-179.6511 236.5109,-174.0447 225.9869,-172.8213 227.521,-179.6511"/>
</g>
<!-- std_tpms (fixes) -->
<g id="node9" class="node">
<title>std_tpms (fixes)</title>
<ellipse fill="none" stroke="#000000" cx="486.1282" cy="-162" rx="85.2851" ry="18"/>
<text text-anchor="middle" x="486.1282" y="-158.3" font-family="Times,serif" font-size="14.00" fill="#000000">std_tpms (fixes)</text>
</g>
<!-- inputnode (utility)&#45;&gt;std_tpms (fixes) -->
<g id="edge8" class="edge">
<title>inputnode (utility)&#45;&gt;std_tpms (fixes)</title>
<path fill="none" stroke="#000000" d="M558.8129,-360.4636C570.2249,-350.9991 582.838,-338.3236 590.1282,-324 611.9938,-281.039 625.906,-256.734 600.1282,-216 589.3585,-198.9818 571.6152,-187.2219 553.2982,-179.1387"/>
<polygon fill="#000000" stroke="#000000" points="554.5775,-175.8807 543.996,-175.349 551.9364,-182.3633 554.5775,-175.8807"/>
</g>
<!-- split_desc (templateflow)&#45;&gt;poutputnode (utility) -->
<g id="edge11" class="edge">
<title>split_desc (templateflow)&#45;&gt;poutputnode (utility)</title>
<path fill="none" stroke="#000000" d="M180.0234,-289.9227C95.2783,-264.1201 -44.4309,-209.6406 14.1282,-144 37.5902,-117.7007 240.129,-102.4477 372.1593,-95.2142"/>
<polygon fill="#000000" stroke="#000000" points="372.5335,-98.6992 382.3303,-94.6651 372.1561,-91.7094 372.5335,-98.6992"/>
</g>
<!-- split_desc (templateflow)&#45;&gt;registration (norm) -->
<g id="edge10" class="edge">
<title>split_desc (templateflow)&#45;&gt;registration (norm)</title>
<path fill="none" stroke="#000000" d="M295.6819,-289.8418C334.9614,-278.6191 387.3354,-263.6551 427.98,-252.0423"/>
<polygon fill="#000000" stroke="#000000" points="429.1269,-255.3548 437.7806,-249.2422 427.2038,-248.6241 429.1269,-255.3548"/>
</g>
<!-- tf_select (templateflow) -->
<g id="node10" class="node">
<title>tf_select (templateflow)</title>
<ellipse fill="none" stroke="#000000" cx="251.1282" cy="-234" rx="121.5784" ry="18"/>
<text text-anchor="middle" x="251.1282" y="-230.3" font-family="Times,serif" font-size="14.00" fill="#000000">tf_select (templateflow)</text>
</g>
<!-- split_desc (templateflow)&#45;&gt;tf_select (templateflow) -->
<g id="edge9" class="edge">
<title>split_desc (templateflow)&#45;&gt;tf_select (templateflow)</title>
<path fill="none" stroke="#000000" d="M242.1563,-287.8314C243.4397,-280.131 244.9658,-270.9743 246.3921,-262.4166"/>
<polygon fill="#000000" stroke="#000000" points="249.8676,-262.8526 248.0593,-252.4133 242.9629,-261.7018 249.8676,-262.8526"/>
</g>
<!-- outputnode (utility) -->
<g id="node11" class="node">
<title>outputnode (utility)</title>
<ellipse fill="none" stroke="#000000" cx="486.1282" cy="-18" rx="101.2821" ry="18"/>
<text text-anchor="middle" x="486.1282" y="-14.3" font-family="Times,serif" font-size="14.00" fill="#000000">outputnode (utility)</text>
</g>
<!-- poutputnode (utility)&#45;&gt;outputnode (utility) -->
<g id="edge12" class="edge">
<title>poutputnode (utility)&#45;&gt;outputnode (utility)</title>
<path fill="none" stroke="#000000" d="M486.1282,-71.8314C486.1282,-64.131 486.1282,-54.9743 486.1282,-46.4166"/>
<polygon fill="#000000" stroke="#000000" points="489.6283,-46.4132 486.1282,-36.4133 482.6283,-46.4133 489.6283,-46.4132"/>
</g>
<!-- trunc_mov (ants)&#45;&gt;registration (norm) -->
<g id="edge13" class="edge">
<title>trunc_mov (ants)&#45;&gt;registration (norm)</title>
<path fill="none" stroke="#000000" d="M479.1657,-287.8314C480.8769,-280.131 482.9117,-270.9743 484.8134,-262.4166"/>
<polygon fill="#000000" stroke="#000000" points="488.2836,-262.9344 487.0364,-252.4133 481.4503,-261.4159 488.2836,-262.9344"/>
</g>
<!-- registration (norm)&#45;&gt;poutputnode (utility) -->
<g id="edge18" class="edge">
<title>registration (norm)&#45;&gt;poutputnode (utility)</title>
<path fill="none" stroke="#000000" d="M588.1151,-229.3203C664.1423,-223.3794 761.1251,-209.9954 786.1282,-180 796.3728,-167.7099 796.391,-156.275 786.1282,-144 762.3404,-115.5481 674.6759,-102.0642 600.2088,-95.687"/>
<polygon fill="#000000" stroke="#000000" points="600.0493,-92.1623 589.7968,-94.8335 599.4774,-99.1389 600.0493,-92.1623"/>
</g>
<!-- registration (norm)&#45;&gt;tpl_moving (fixes) -->
<g id="edge14" class="edge">
<title>registration (norm)&#45;&gt;tpl_moving (fixes)</title>
<path fill="none" stroke="#000000" d="M534.696,-217.6621C563.1492,-206.9921 600.4668,-192.998 630.5656,-181.711"/>
<polygon fill="#000000" stroke="#000000" points="631.9296,-184.9375 640.0639,-178.1491 629.4717,-178.3832 631.9296,-184.9375"/>
</g>
<!-- registration (norm)&#45;&gt;std_mask (fixes) -->
<g id="edge15" class="edge">
<title>registration (norm)&#45;&gt;std_mask (fixes)</title>
<path fill="none" stroke="#000000" d="M421.6899,-220.8778C354.5895,-208.1974 253.2728,-189.051 184.5414,-176.0623"/>
<polygon fill="#000000" stroke="#000000" points="185.1211,-172.61 174.6451,-174.1922 183.8213,-179.4883 185.1211,-172.61"/>
</g>
<!-- registration (norm)&#45;&gt;std_dseg (fixes) -->
<g id="edge16" class="edge">
<title>registration (norm)&#45;&gt;std_dseg (fixes)</title>
<path fill="none" stroke="#000000" d="M447.5604,-217.6621C418.7078,-206.8424 380.7403,-192.6045 350.4277,-181.2373"/>
<polygon fill="#000000" stroke="#000000" points="351.4685,-177.8897 340.8762,-177.6555 349.0106,-184.444 351.4685,-177.8897"/>
</g>
<!-- registration (norm)&#45;&gt;std_tpms (fixes) -->
<g id="edge17" class="edge">
<title>registration (norm)&#45;&gt;std_tpms (fixes)</title>
<path fill="none" stroke="#000000" d="M489.8665,-215.8314C489.3317,-208.131 488.6959,-198.9743 488.1016,-190.4166"/>
<polygon fill="#000000" stroke="#000000" points="491.5914,-190.1467 487.4069,-180.4133 484.6082,-190.6317 491.5914,-190.1467"/>
</g>
<!-- tpl_moving (fixes)&#45;&gt;poutputnode (utility) -->
<g id="edge19" class="edge">
<title>tpl_moving (fixes)&#45;&gt;poutputnode (utility)</title>
<path fill="none" stroke="#000000" d="M639.4075,-146.0209C610.2327,-135.358 571.6569,-121.2592 540.5037,-109.8733"/>
<polygon fill="#000000" stroke="#000000" points="541.6863,-106.5791 531.0925,-106.4336 539.2833,-113.1538 541.6863,-106.5791"/>
</g>
<!-- std_mask (fixes)&#45;&gt;poutputnode (utility) -->
<g id="edge20" class="edge">
<title>std_mask (fixes)&#45;&gt;poutputnode (utility)</title>
<path fill="none" stroke="#000000" d="M174.3377,-149.7046C238.1104,-137.4928 336.0935,-118.73 405.1667,-105.5033"/>
<polygon fill="#000000" stroke="#000000" points="405.9773,-108.9117 415.1405,-103.5934 404.6607,-102.0366 405.9773,-108.9117"/>
</g>
<!-- std_dseg (fixes)&#45;&gt;poutputnode (utility) -->
<g id="edge21" class="edge">
<title>std_dseg (fixes)&#45;&gt;poutputnode (utility)</title>
<path fill="none" stroke="#000000" d="M340.1661,-146.1993C367.718,-135.5911 404.2556,-121.5231 433.8818,-110.1163"/>
<polygon fill="#000000" stroke="#000000" points="435.1631,-113.3735 443.2376,-106.514 432.6478,-106.841 435.1631,-113.3735"/>
</g>
<!-- std_tpms (fixes)&#45;&gt;poutputnode (utility) -->
<g id="edge22" class="edge">
<title>std_tpms (fixes)&#45;&gt;poutputnode (utility)</title>
<path fill="none" stroke="#000000" d="M486.1282,-143.8314C486.1282,-136.131 486.1282,-126.9743 486.1282,-118.4166"/>
<polygon fill="#000000" stroke="#000000" points="489.6283,-118.4132 486.1282,-108.4133 482.6283,-118.4133 489.6283,-118.4132"/>
</g>
<!-- tf_select (templateflow)&#45;&gt;tpl_moving (fixes) -->
<g id="edge23" class="edge">
<title>tf_select (templateflow)&#45;&gt;tpl_moving (fixes)</title>
<path fill="none" stroke="#000000" d="M333.6444,-220.6985C400.2093,-209.9099 496.2369,-194.2146 580.1282,-180 587.7418,-178.7099 595.6691,-177.3516 603.5957,-175.9833"/>
<polygon fill="#000000" stroke="#000000" points="604.3556,-179.4039 613.612,-174.2492 603.1614,-172.5065 604.3556,-179.4039"/>
</g>
<!-- tf_select (templateflow)&#45;&gt;std_mask (fixes) -->
<g id="edge24" class="edge">
<title>tf_select (templateflow)&#45;&gt;std_mask (fixes)</title>
<path fill="none" stroke="#000000" d="M216.996,-216.5708C197.401,-206.5648 172.6443,-193.9231 151.8942,-183.3273"/>
<polygon fill="#000000" stroke="#000000" points="153.4729,-180.2036 142.9751,-178.7729 150.2895,-186.4379 153.4729,-180.2036"/>
</g>
<!-- tf_select (templateflow)&#45;&gt;std_dseg (fixes) -->
<g id="edge25" class="edge">
<title>tf_select (templateflow)&#45;&gt;std_dseg (fixes)</title>
<path fill="none" stroke="#000000" d="M263.2406,-215.8314C268.7969,-207.497 275.4904,-197.4567 281.5841,-188.3162"/>
<polygon fill="#000000" stroke="#000000" points="284.5511,-190.1754 287.1859,-179.9134 278.7267,-186.2925 284.5511,-190.1754"/>
</g>
<!-- tf_select (templateflow)&#45;&gt;std_tpms (fixes) -->
<g id="edge26" class="edge">
<title>tf_select (templateflow)&#45;&gt;std_tpms (fixes)</title>
<path fill="none" stroke="#000000" d="M304.1598,-217.752C340.9431,-206.4822 389.9347,-191.472 427.817,-179.8656"/>
<polygon fill="#000000" stroke="#000000" points="429.1539,-183.1166 437.6898,-176.8407 427.1032,-176.4237 429.1539,-183.1166"/>
</g>
</g>
</svg>
