<?xml version="1.0" encoding="UTF-8" standalone="no"?>
<!DOCTYPE svg PUBLIC "-//W3C//DTD SVG 1.1//EN"
 "http://www.w3.org/Graphics/SVG/1.1/DTD/svg11.dtd">
<!-- Generated by graphviz version 2.40.1 (20161225.0304)
 -->
<!-- Title: structs Pages: 1 -->
<svg width="1072pt" height="534pt"
 viewBox="0.00 0.00 1071.84 534.00" xmlns="http://www.w3.org/2000/svg" xmlns:xlink="http://www.w3.org/1999/xlink">
<g id="graph0" class="graph" transform="scale(1 1) rotate(0) translate(4 530)">
<title>structs</title>
<polygon fill="#ffffff" stroke="transparent" points="-4,4 -4,-530 1067.842,-530 1067.842,4 -4,4"/>
<!-- single_subject_wfinputnode -->
<g id="node1" class="node">
<title>single_subject_wfinputnode</title>
<polygon fill="none" stroke="#000000" points="122.342,-304.5 122.342,-373.5 350.342,-373.5 350.342,-304.5 122.342,-304.5"/>
<text text-anchor="middle" x="139.842" y="-335.3" font-family="Times,serif" font-size="14.00" fill="#000000">IN</text>
<polyline fill="none" stroke="#000000" points="157.342,-304.5 157.342,-373.5 "/>
<text text-anchor="middle" x="201.842" y="-358.3" font-family="Times,serif" font-size="14.00" fill="#000000">inputnode</text>
<polyline fill="none" stroke="#000000" points="157.342,-350.5 246.342,-350.5 "/>
<text text-anchor="middle" x="201.842" y="-335.3" font-family="Times,serif" font-size="14.00" fill="#000000">utility</text>
<polyline fill="none" stroke="#000000" points="157.342,-327.5 246.342,-327.5 "/>
<text text-anchor="middle" x="201.842" y="-312.3" font-family="Times,serif" font-size="14.00" fill="#000000"> </text>
<polyline fill="none" stroke="#000000" points="246.342,-304.5 246.342,-373.5 "/>
<text text-anchor="middle" x="298.342" y="-352.8" font-family="Times,serif" font-size="14.00" fill="#000000">OUT</text>
<polyline fill="none" stroke="#000000" points="246.342,-339.5 350.342,-339.5 "/>
<text text-anchor="middle" x="298.342" y="-318.3" font-family="Times,serif" font-size="14.00" fill="#000000">subjects_dir</text>
</g>
<!-- single_subject_wfsummary -->
<g id="node6" class="node">
<title>single_subject_wfsummary</title>
<polygon fill="none" stroke="#000000" points="94.842,-129.5 94.842,-244.5 373.842,-244.5 373.842,-129.5 94.842,-129.5"/>
<text text-anchor="middle" x="146.842" y="-229.3" font-family="Times,serif" font-size="14.00" fill="#000000">IN</text>
<polyline fill="none" stroke="#000000" points="94.842,-221.5 198.842,-221.5 "/>
<text text-anchor="middle" x="146.842" y="-206.3" font-family="Times,serif" font-size="14.00" fill="#000000">subject_id</text>
<polyline fill="none" stroke="#000000" points="94.842,-198.5 198.842,-198.5 "/>
<text text-anchor="middle" x="146.842" y="-183.3" font-family="Times,serif" font-size="14.00" fill="#000000">subjects_dir</text>
<polyline fill="none" stroke="#000000" points="94.842,-175.5 198.842,-175.5 "/>
<text text-anchor="middle" x="146.842" y="-160.3" font-family="Times,serif" font-size="14.00" fill="#000000">t1w</text>
<polyline fill="none" stroke="#000000" points="94.842,-152.5 198.842,-152.5 "/>
<text text-anchor="middle" x="146.842" y="-137.3" font-family="Times,serif" font-size="14.00" fill="#000000">t2w</text>
<polyline fill="none" stroke="#000000" points="198.842,-129.5 198.842,-244.5 "/>
<text text-anchor="middle" x="240.342" y="-221.8" font-family="Times,serif" font-size="14.00" fill="#000000">summary</text>
<polyline fill="none" stroke="#000000" points="198.842,-206.5 281.842,-206.5 "/>
<text text-anchor="middle" x="240.342" y="-183.8" font-family="Times,serif" font-size="14.00" fill="#000000">reports</text>
<polyline fill="none" stroke="#000000" points="198.842,-168.5 281.842,-168.5 "/>
<text text-anchor="middle" x="240.342" y="-145.3" font-family="Times,serif" font-size="14.00" fill="#000000"> </text>
<polyline fill="none" stroke="#000000" points="281.842,-129.5 281.842,-244.5 "/>
<text text-anchor="middle" x="327.842" y="-212.3" font-family="Times,serif" font-size="14.00" fill="#000000">OUT</text>
<polyline fill="none" stroke="#000000" points="281.842,-187.5 373.842,-187.5 "/>
<text text-anchor="middle" x="327.842" y="-154.8" font-family="Times,serif" font-size="14.00" fill="#000000">out_report</text>
</g>
<!-- single_subject_wfinputnode&#45;&gt;single_subject_wfsummary -->
<g id="edge14" class="edge">
<title>single_subject_wfinputnode:e&#45;&gt;single_subject_wfsummary:w</title>
<path fill="none" stroke="#000000" d="M350.342,-322C358.342,-322 355.3233,-310.2599 350.342,-304 277.6396,-212.6362 167.0444,-336.3638 94.342,-245 80.9245,-228.1384 71.9261,-198.9374 84.3926,-189.8097"/>
<polygon fill="#000000" stroke="#000000" points="85.6696,-193.086 94.342,-187 83.7672,-186.3495 85.6696,-193.086"/>
</g>
<!-- single_subject_wfanat_preproc_wf -->
<g id="node7" class="node">
<title>single_subject_wfanat_preproc_wf</title>
<polygon fill="none" stroke="#000000" points="625.342,-106.5 625.342,-267.5 993.342,-267.5 993.342,-106.5 625.342,-106.5"/>
<text text-anchor="middle" x="715.842" y="-252.3" font-family="Times,serif" font-size="14.00" fill="#000000">IN</text>
<polyline fill="none" stroke="#000000" points="625.342,-244.5 806.342,-244.5 "/>
<text text-anchor="middle" x="715.842" y="-229.3" font-family="Times,serif" font-size="14.00" fill="#000000">inputnode.flair</text>
<polyline fill="none" stroke="#000000" points="625.342,-221.5 806.342,-221.5 "/>
<text text-anchor="middle" x="715.842" y="-206.3" font-family="Times,serif" font-size="14.00" fill="#000000">inputnode.roi</text>
<polyline fill="none" stroke="#000000" points="625.342,-198.5 806.342,-198.5 "/>
<text text-anchor="middle" x="715.842" y="-183.3" font-family="Times,serif" font-size="14.00" fill="#000000">inputnode.subject_id</text>
<polyline fill="none" stroke="#000000" points="625.342,-175.5 806.342,-175.5 "/>
<text text-anchor="middle" x="715.842" y="-160.3" font-family="Times,serif" font-size="14.00" fill="#000000">inputnode.subjects_dir</text>
<polyline fill="none" stroke="#000000" points="625.342,-152.5 806.342,-152.5 "/>
<text text-anchor="middle" x="715.842" y="-137.3" font-family="Times,serif" font-size="14.00" fill="#000000">inputnode.t1w</text>
<polyline fill="none" stroke="#000000" points="625.342,-129.5 806.342,-129.5 "/>
<text text-anchor="middle" x="715.842" y="-114.3" font-family="Times,serif" font-size="14.00" fill="#000000">inputnode.t2w</text>
<polyline fill="none" stroke="#000000" points="806.342,-106.5 806.342,-267.5 "/>
<text text-anchor="middle" x="874.842" y="-237.3" font-family="Times,serif" font-size="14.00" fill="#000000">anat_preproc_wf</text>
<polyline fill="none" stroke="#000000" points="806.342,-214.5 943.342,-214.5 "/>
<text text-anchor="middle" x="874.842" y="-183.8" font-family="Times,serif" font-size="14.00" fill="#000000"> </text>
<polyline fill="none" stroke="#000000" points="806.342,-160.5 943.342,-160.5 "/>
<text text-anchor="middle" x="874.842" y="-129.8" font-family="Times,serif" font-size="14.00" fill="#000000"> </text>
<polyline fill="none" stroke="#000000" points="943.342,-106.5 943.342,-267.5 "/>
<text text-anchor="middle" x="968.342" y="-183.3" font-family="Times,serif" font-size="14.00" fill="#000000">OUT</text>
</g>
<!-- single_subject_wfinputnode&#45;&gt;single_subject_wfanat_preproc_wf -->
<g id="edge13" class="edge">
<title>single_subject_wfinputnode:e&#45;&gt;single_subject_wfanat_preproc_wf:w</title>
<path fill="none" stroke="#000000" d="M350.342,-322C359.2863,-322 353.0837,-310.3901 359.342,-304 450.3554,-211.0707 489.6546,-166.3849 614.969,-164.093"/>
<polygon fill="#000000" stroke="#000000" points="615.3738,-167.5896 625.342,-164 615.311,-160.5899 615.3738,-167.5896"/>
</g>
<!-- single_subject_wfbidssrc -->
<g id="node2" class="node">
<title>single_subject_wfbidssrc</title>
<polygon fill="none" stroke="#000000" points="434.342,-410.5 434.342,-525.5 588.342,-525.5 588.342,-410.5 434.342,-410.5"/>
<text text-anchor="middle" x="451.842" y="-464.3" font-family="Times,serif" font-size="14.00" fill="#000000">IN</text>
<polyline fill="none" stroke="#000000" points="469.342,-410.5 469.342,-525.5 "/>
<text text-anchor="middle" x="503.842" y="-502.8" font-family="Times,serif" font-size="14.00" fill="#000000">bidssrc</text>
<polyline fill="none" stroke="#000000" points="469.342,-487.5 538.342,-487.5 "/>
<text text-anchor="middle" x="503.842" y="-464.8" font-family="Times,serif" font-size="14.00" fill="#000000">bids</text>
<polyline fill="none" stroke="#000000" points="469.342,-449.5 538.342,-449.5 "/>
<text text-anchor="middle" x="503.842" y="-426.3" font-family="Times,serif" font-size="14.00" fill="#000000"> </text>
<polyline fill="none" stroke="#000000" points="538.342,-410.5 538.342,-525.5 "/>
<text text-anchor="middle" x="563.342" y="-510.3" font-family="Times,serif" font-size="14.00" fill="#000000">OUT</text>
<polyline fill="none" stroke="#000000" points="538.342,-502.5 588.342,-502.5 "/>
<text text-anchor="middle" x="563.342" y="-487.3" font-family="Times,serif" font-size="14.00" fill="#000000">flair</text>
<polyline fill="none" stroke="#000000" points="538.342,-479.5 588.342,-479.5 "/>
<text text-anchor="middle" x="563.342" y="-464.3" font-family="Times,serif" font-size="14.00" fill="#000000">roi</text>
<polyline fill="none" stroke="#000000" points="538.342,-456.5 588.342,-456.5 "/>
<text text-anchor="middle" x="563.342" y="-441.3" font-family="Times,serif" font-size="14.00" fill="#000000">t1w</text>
<polyline fill="none" stroke="#000000" points="538.342,-433.5 588.342,-433.5 "/>
<text text-anchor="middle" x="563.342" y="-418.3" font-family="Times,serif" font-size="14.00" fill="#000000">t2w</text>
</g>
<!-- single_subject_wfbids_info -->
<g id="node4" class="node">
<title>single_subject_wfbids_info</title>
<polygon fill="none" stroke="#000000" points="368.342,-304.5 368.342,-373.5 578.342,-373.5 578.342,-304.5 368.342,-304.5"/>
<text text-anchor="middle" x="398.342" y="-352.8" font-family="Times,serif" font-size="14.00" fill="#000000">IN</text>
<polyline fill="none" stroke="#000000" points="368.342,-339.5 428.342,-339.5 "/>
<text text-anchor="middle" x="398.342" y="-318.3" font-family="Times,serif" font-size="14.00" fill="#000000">in_file</text>
<polyline fill="none" stroke="#000000" points="428.342,-304.5 428.342,-373.5 "/>
<text text-anchor="middle" x="468.842" y="-358.3" font-family="Times,serif" font-size="14.00" fill="#000000">bids_info</text>
<polyline fill="none" stroke="#000000" points="428.342,-350.5 509.342,-350.5 "/>
<text text-anchor="middle" x="468.842" y="-335.3" font-family="Times,serif" font-size="14.00" fill="#000000">bids</text>
<polyline fill="none" stroke="#000000" points="428.342,-327.5 509.342,-327.5 "/>
<text text-anchor="middle" x="468.842" y="-312.3" font-family="Times,serif" font-size="14.00" fill="#000000"> </text>
<polyline fill="none" stroke="#000000" points="509.342,-304.5 509.342,-373.5 "/>
<text text-anchor="middle" x="543.842" y="-352.8" font-family="Times,serif" font-size="14.00" fill="#000000">OUT</text>
<polyline fill="none" stroke="#000000" points="509.342,-339.5 578.342,-339.5 "/>
<text text-anchor="middle" x="543.842" y="-318.3" font-family="Times,serif" font-size="14.00" fill="#000000">subject</text>
</g>
<!-- single_subject_wfbidssrc&#45;&gt;single_subject_wfbids_info -->
<g id="edge7" class="edge">
<title>single_subject_wfbidssrc:e&#45;&gt;single_subject_wfbids_info:w</title>
<path fill="none" stroke="#000000" d="M588.342,-445C596.1198,-445 593.3781,-415.9272 588.342,-410 524.1889,-334.4959 432.4951,-449.5041 368.342,-374 362.9057,-367.6018 359.2689,-343.0506 362.1186,-330.1025"/>
<polygon fill="#000000" stroke="#000000" points="365.0263,-332.0627 368.342,-322 359.4749,-327.7987 365.0263,-332.0627"/>
</g>
<!-- single_subject_wfds_report_about -->
<g id="node5" class="node">
<title>single_subject_wfds_report_about</title>
<polygon fill="none" stroke="#000000" points="784.842,-304.5 784.842,-373.5 1063.842,-373.5 1063.842,-304.5 784.842,-304.5"/>
<text text-anchor="middle" x="832.342" y="-358.3" font-family="Times,serif" font-size="14.00" fill="#000000">IN</text>
<polyline fill="none" stroke="#000000" points="784.842,-350.5 879.842,-350.5 "/>
<text text-anchor="middle" x="832.342" y="-335.3" font-family="Times,serif" font-size="14.00" fill="#000000">in_file</text>
<polyline fill="none" stroke="#000000" points="784.842,-327.5 879.842,-327.5 "/>
<text text-anchor="middle" x="832.342" y="-312.3" font-family="Times,serif" font-size="14.00" fill="#000000">source_file</text>
<polyline fill="none" stroke="#000000" points="879.842,-304.5 879.842,-373.5 "/>
<text text-anchor="middle" x="946.842" y="-358.3" font-family="Times,serif" font-size="14.00" fill="#000000">ds_report_about</text>
<polyline fill="none" stroke="#000000" points="879.842,-350.5 1013.842,-350.5 "/>
<text text-anchor="middle" x="946.842" y="-335.3" font-family="Times,serif" font-size="14.00" fill="#000000"> </text>
<polyline fill="none" stroke="#000000" points="879.842,-327.5 1013.842,-327.5 "/>
<text text-anchor="middle" x="946.842" y="-312.3" font-family="Times,serif" font-size="14.00" fill="#000000"> </text>
<polyline fill="none" stroke="#000000" points="1013.842,-304.5 1013.842,-373.5 "/>
<text text-anchor="middle" x="1038.842" y="-335.3" font-family="Times,serif" font-size="14.00" fill="#000000">OUT</text>
</g>
<!-- single_subject_wfbidssrc&#45;&gt;single_subject_wfds_report_about -->
<g id="edge8" class="edge">
<title>single_subject_wfbidssrc:e&#45;&gt;single_subject_wfds_report_about:w</title>
<path fill="none" stroke="#000000" d="M588.342,-445C604.4036,-445 586.0147,-421.3872 597.342,-410 641.7411,-365.3661 680.9405,-407.3427 734.342,-374 759.8279,-358.0872 752.7584,-325.0677 774.1679,-317.5473"/>
<polygon fill="#000000" stroke="#000000" points="774.9819,-320.9638 784.342,-316 773.9294,-314.0434 774.9819,-320.9638"/>
</g>
<!-- single_subject_wfbidssrc&#45;&gt;single_subject_wfsummary -->
<g id="edge10" class="edge">
<title>single_subject_wfbidssrc:e&#45;&gt;single_subject_wfsummary:w</title>
<path fill="none" stroke="#000000" d="M588.342,-445C596.1198,-445 593.6298,-415.7037 588.342,-410 516.3729,-332.37 190.7899,-446.1651 113.342,-374 81.7386,-344.5523 52.4349,-190.9296 84.7599,-167.1057"/>
<polygon fill="#000000" stroke="#000000" points="85.9084,-170.4128 94.342,-164 83.75,-163.7539 85.9084,-170.4128"/>
</g>
<!-- single_subject_wfbidssrc&#45;&gt;single_subject_wfsummary -->
<g id="edge12" class="edge">
<title>single_subject_wfbidssrc:e&#45;&gt;single_subject_wfsummary:w</title>
<path fill="none" stroke="#000000" d="M588.342,-422C593.6753,-422 591.9781,-413.9017 588.342,-410 510.8839,-326.8815 155.8001,-457.1185 78.342,-374 52.2389,-345.9894 42.4231,-167.1977 84.5511,-143.5754"/>
<polygon fill="#000000" stroke="#000000" points="85.5614,-146.9288 94.342,-141 83.7806,-140.1591 85.5614,-146.9288"/>
</g>
<!-- single_subject_wfbidssrc&#45;&gt;single_subject_wfanat_preproc_wf -->
<g id="edge4" class="edge">
<title>single_subject_wfbidssrc:e&#45;&gt;single_subject_wfanat_preproc_wf:w</title>
<path fill="none" stroke="#000000" d="M588.342,-491C606.4528,-491 586.1475,-424.2367 597.342,-410 626.2814,-373.1963 669.4822,-412.3478 696.342,-374 714.1904,-348.5179 712.6237,-330.5105 696.342,-304 677.8262,-273.8517 643.8578,-298.1483 625.342,-268 619.7452,-258.887 614.4916,-245.7614 616.8094,-238.4479"/>
<polygon fill="#000000" stroke="#000000" points="618.797,-241.3315 625.342,-233 615.0299,-235.4315 618.797,-241.3315"/>
</g>
<!-- single_subject_wfbidssrc&#45;&gt;single_subject_wfanat_preproc_wf -->
<g id="edge5" class="edge">
<title>single_subject_wfbidssrc:e&#45;&gt;single_subject_wfanat_preproc_wf:w</title>
<path fill="none" stroke="#000000" d="M588.342,-468C601.3851,-468 590.0227,-420.7959 597.342,-410 615.0077,-383.9436 642.7323,-401.3377 658.342,-374 673.7686,-346.983 669.6205,-332.9948 658.342,-304 650.4734,-283.7714 633.2106,-288.2286 625.342,-268 617.6032,-248.1049 605.0036,-221.3852 615.5409,-212.788"/>
<polygon fill="#000000" stroke="#000000" points="616.6812,-216.1025 625.342,-210 614.7659,-209.3696 616.6812,-216.1025"/>
</g>
<!-- single_subject_wfbidssrc&#45;&gt;single_subject_wfanat_preproc_wf -->
<g id="edge6" class="edge">
<title>single_subject_wfbidssrc:e&#45;&gt;single_subject_wfanat_preproc_wf:w</title>
<path fill="none" stroke="#000000" d="M588.342,-445C604.4036,-445 590.9381,-424.7297 597.342,-410 604.9121,-392.5877 614.822,-392.1665 620.342,-374 649.397,-278.3789 530.6151,-150.3715 615.2619,-141.4891"/>
<polygon fill="#000000" stroke="#000000" points="615.5234,-144.9807 625.342,-141 615.1841,-137.9889 615.5234,-144.9807"/>
</g>
<!-- single_subject_wfbidssrc&#45;&gt;single_subject_wfanat_preproc_wf -->
<g id="edge11" class="edge">
<title>single_subject_wfbidssrc:e&#45;&gt;single_subject_wfanat_preproc_wf:w</title>
<path fill="none" stroke="#000000" d="M588.342,-422C603.5944,-422 607.5625,-177.68 620.4787,-127.0981"/>
<polygon fill="#000000" stroke="#000000" points="623.7145,-128.4691 625.342,-118 617.5411,-125.1692 623.7145,-128.4691"/>
</g>
<!-- single_subject_wfds_report_summary -->
<g id="node8" class="node">
<title>single_subject_wfds_report_summary</title>
<polygon fill="none" stroke="#000000" points="196.842,-.5 196.842,-69.5 501.842,-69.5 501.842,-.5 196.842,-.5"/>
<text text-anchor="middle" x="244.342" y="-54.3" font-family="Times,serif" font-size="14.00" fill="#000000">IN</text>
<polyline fill="none" stroke="#000000" points="196.842,-46.5 291.842,-46.5 "/>
<text text-anchor="middle" x="244.342" y="-31.3" font-family="Times,serif" font-size="14.00" fill="#000000">in_file</text>
<polyline fill="none" stroke="#000000" points="196.842,-23.5 291.842,-23.5 "/>
<text text-anchor="middle" x="244.342" y="-8.3" font-family="Times,serif" font-size="14.00" fill="#000000">source_file</text>
<polyline fill="none" stroke="#000000" points="291.842,-.5 291.842,-69.5 "/>
<text text-anchor="middle" x="371.842" y="-54.3" font-family="Times,serif" font-size="14.00" fill="#000000">ds_report_summary</text>
<polyline fill="none" stroke="#000000" points="291.842,-46.5 451.842,-46.5 "/>
<text text-anchor="middle" x="371.842" y="-31.3" font-family="Times,serif" font-size="14.00" fill="#000000"> </text>
<polyline fill="none" stroke="#000000" points="291.842,-23.5 451.842,-23.5 "/>
<text text-anchor="middle" x="371.842" y="-8.3" font-family="Times,serif" font-size="14.00" fill="#000000"> </text>
<polyline fill="none" stroke="#000000" points="451.842,-.5 451.842,-69.5 "/>
<text text-anchor="middle" x="476.842" y="-31.3" font-family="Times,serif" font-size="14.00" fill="#000000">OUT</text>
</g>
<!-- single_subject_wfbidssrc&#45;&gt;single_subject_wfds_report_summary -->
<g id="edge9" class="edge">
<title>single_subject_wfbidssrc:e&#45;&gt;single_subject_wfds_report_summary:w</title>
<path fill="none" stroke="#000000" d="M588.342,-445C596.1198,-445 593.6535,-415.6817 588.342,-410 507.1192,-323.1171 135.5648,-460.8829 54.342,-374 -61.3766,-250.2175 20.1897,-21.1673 186.3145,-12.2672"/>
<polygon fill="#000000" stroke="#000000" points="186.4388,-15.7653 196.342,-12 186.2523,-8.7677 186.4388,-15.7653"/>
</g>
<!-- single_subject_wfabout -->
<g id="node3" class="node">
<title>single_subject_wfabout</title>
<polygon fill="none" stroke="#000000" points="606.342,-433.5 606.342,-502.5 802.342,-502.5 802.342,-433.5 606.342,-433.5"/>
<text text-anchor="middle" x="623.842" y="-464.3" font-family="Times,serif" font-size="14.00" fill="#000000">IN</text>
<polyline fill="none" stroke="#000000" points="641.342,-433.5 641.342,-502.5 "/>
<text text-anchor="middle" x="675.842" y="-487.3" font-family="Times,serif" font-size="14.00" fill="#000000">about</text>
<polyline fill="none" stroke="#000000" points="641.342,-479.5 710.342,-479.5 "/>
<text text-anchor="middle" x="675.842" y="-464.3" font-family="Times,serif" font-size="14.00" fill="#000000">reports</text>
<polyline fill="none" stroke="#000000" points="641.342,-456.5 710.342,-456.5 "/>
<text text-anchor="middle" x="675.842" y="-441.3" font-family="Times,serif" font-size="14.00" fill="#000000"> </text>
<polyline fill="none" stroke="#000000" points="710.342,-433.5 710.342,-502.5 "/>
<text text-anchor="middle" x="756.342" y="-481.8" font-family="Times,serif" font-size="14.00" fill="#000000">OUT</text>
<polyline fill="none" stroke="#000000" points="710.342,-468.5 802.342,-468.5 "/>
<text text-anchor="middle" x="756.342" y="-447.3" font-family="Times,serif" font-size="14.00" fill="#000000">out_report</text>
</g>
<!-- single_subject_wfabout&#45;&gt;single_subject_wfds_report_about -->
<g id="edge1" class="edge">
<title>single_subject_wfabout:e&#45;&gt;single_subject_wfds_report_about:w</title>
<path fill="none" stroke="#000000" d="M802.342,-451C848.2289,-451 753.9121,-358.2209 774.6062,-341.5497"/>
<polygon fill="#000000" stroke="#000000" points="775.555,-344.9193 784.342,-339 773.7815,-338.1477 775.555,-344.9193"/>
</g>
<!-- single_subject_wfbids_info&#45;&gt;single_subject_wfsummary -->
<g id="edge3" class="edge">
<title>single_subject_wfbids_info:e&#45;&gt;single_subject_wfsummary:w</title>
<path fill="none" stroke="#000000" d="M578.342,-322C586.342,-322 583.6456,-309.9893 578.342,-304 434.6793,-141.7612 238.0047,-407.2388 94.342,-245 87.091,-236.8115 82.3463,-222.8346 85.5755,-215.2575"/>
<polygon fill="#000000" stroke="#000000" points="87.5662,-218.1449 94.342,-210 83.9659,-212.1417 87.5662,-218.1449"/>
</g>
<!-- single_subject_wfbids_info&#45;&gt;single_subject_wfanat_preproc_wf -->
<g id="edge2" class="edge">
<title>single_subject_wfbids_info:e&#45;&gt;single_subject_wfanat_preproc_wf:w</title>
<path fill="none" stroke="#000000" d="M578.342,-322C591.9295,-322 605.0418,-223.2034 618.492,-194.645"/>
<polygon fill="#000000" stroke="#000000" points="621.2754,-196.7833 625.342,-187 616.062,-192.1121 621.2754,-196.7833"/>
</g>
<!-- single_subject_wfsummary&#45;&gt;single_subject_wfds_report_summary -->
<g id="edge15" class="edge">
<title>single_subject_wfsummary:e&#45;&gt;single_subject_wfds_report_summary:w</title>
<path fill="none" stroke="#000000" d="M374.342,-158C387.2309,-158 381.8871,-139.4497 374.342,-129 325.5531,-61.4292 245.1309,-137.5708 196.342,-70 190.0815,-61.3295 185.0768,-48.038 187.615,-40.5775"/>
<polygon fill="#000000" stroke="#000000" points="189.8007,-43.3344 196.342,-35 186.031,-37.4361 189.8007,-43.3344"/>
</g>
</g>
</svg>
