<?xml version="1.0" encoding="UTF-8" standalone="no"?>
<!DOCTYPE svg PUBLIC "-//W3C//DTD SVG 1.1//EN"
 "http://www.w3.org/Graphics/SVG/1.1/DTD/svg11.dtd">
<!-- Generated by graphviz version 2.40.1 (20161225.0304)
 -->
<!-- Title: %3 Pages: 1 -->
<svg width="973pt" height="836pt"
 viewBox="0.00 0.00 973.00 836.00" xmlns="http://www.w3.org/2000/svg" xmlns:xlink="http://www.w3.org/1999/xlink">
<g id="graph0" class="graph" transform="scale(1 1) rotate(0) translate(4 832)">
<title>%3</title>
<polygon fill="#ffffff" stroke="transparent" points="-4,4 -4,-832 969,-832 969,4 -4,4"/>
<!-- outputnode (utility) -->
<g id="node1" class="node">
<title>outputnode (utility)</title>
<ellipse fill="none" stroke="#000000" cx="290" cy="-90" rx="101.2821" ry="18"/>
<text text-anchor="middle" x="290" y="-86.3" font-family="Times,serif" font-size="14.00" fill="#000000">outputnode (utility)</text>
</g>
<!-- anat_reports_wf -->
<g id="node2" class="node">
<title>anat_reports_wf</title>
<ellipse fill="none" stroke="#000000" cx="742" cy="-18" rx="86.3847" ry="18"/>
<text text-anchor="middle" x="742" y="-14.3" font-family="Times,serif" font-size="14.00" fill="#000000">anat_reports_wf</text>
</g>
<!-- outputnode (utility)&#45;&gt;anat_reports_wf -->
<g id="edge1" class="edge">
<title>outputnode (utility)&#45;&gt;anat_reports_wf</title>
<path fill="none" stroke="#000000" d="M365.6546,-77.9488C448.1263,-64.8117 579.4827,-43.8877 663.1802,-30.5554"/>
<polygon fill="#000000" stroke="#000000" points="663.8196,-33.9977 673.1445,-28.9681 662.7184,-27.0849 663.8196,-33.9977"/>
</g>
<!-- anat_derivatives_wf -->
<g id="node3" class="node">
<title>anat_derivatives_wf</title>
<ellipse fill="none" stroke="#000000" cx="183" cy="-18" rx="103.9815" ry="18"/>
<text text-anchor="middle" x="183" y="-14.3" font-family="Times,serif" font-size="14.00" fill="#000000">anat_derivatives_wf</text>
</g>
<!-- outputnode (utility)&#45;&gt;anat_derivatives_wf -->
<g id="edge2" class="edge">
<title>outputnode (utility)&#45;&gt;anat_derivatives_wf</title>
<path fill="none" stroke="#000000" d="M264.0983,-72.5708C250.1387,-63.1774 232.7269,-51.4611 217.6194,-41.2953"/>
<polygon fill="#000000" stroke="#000000" points="219.2846,-38.1972 209.034,-35.5182 215.3767,-44.0048 219.2846,-38.1972"/>
</g>
<!-- inputnode (utility) -->
<g id="node4" class="node">
<title>inputnode (utility)</title>
<ellipse fill="none" stroke="#000000" cx="793" cy="-810" rx="94.7833" ry="18"/>
<text text-anchor="middle" x="793" y="-806.3" font-family="Times,serif" font-size="14.00" fill="#000000">inputnode (utility)</text>
</g>
<!-- inputnode (utility)&#45;&gt;anat_reports_wf -->
<g id="edge5" class="edge">
<title>inputnode (utility)&#45;&gt;anat_reports_wf</title>
<path fill="none" stroke="#000000" d="M839.0928,-794.2148C890.0413,-773.4907 965,-731.8165 965,-666 965,-666 965,-666 965,-162 965,-89.1239 879.9124,-51.3351 814.8552,-33.093"/>
<polygon fill="#000000" stroke="#000000" points="815.5752,-29.6622 805.0087,-30.4361 813.7515,-36.4205 815.5752,-29.6622"/>
</g>
<!-- anat_template_wf -->
<g id="node5" class="node">
<title>anat_template_wf</title>
<ellipse fill="none" stroke="#000000" cx="464" cy="-738" rx="93.6835" ry="18"/>
<text text-anchor="middle" x="464" y="-734.3" font-family="Times,serif" font-size="14.00" fill="#000000">anat_template_wf</text>
</g>
<!-- inputnode (utility)&#45;&gt;anat_template_wf -->
<g id="edge3" class="edge">
<title>inputnode (utility)&#45;&gt;anat_template_wf</title>
<path fill="none" stroke="#000000" d="M730.7308,-796.3727C675.2586,-784.2329 594.0899,-766.4695 535.8776,-753.73"/>
<polygon fill="#000000" stroke="#000000" points="536.5316,-750.2904 526.0145,-751.5716 535.035,-757.1286 536.5316,-750.2904"/>
</g>
<!-- anat_norm_wf -->
<g id="node6" class="node">
<title>anat_norm_wf</title>
<ellipse fill="none" stroke="#000000" cx="558" cy="-162" rx="76.8869" ry="18"/>
<text text-anchor="middle" x="558" y="-158.3" font-family="Times,serif" font-size="14.00" fill="#000000">anat_norm_wf</text>
</g>
<!-- inputnode (utility)&#45;&gt;anat_norm_wf -->
<g id="edge4" class="edge">
<title>inputnode (utility)&#45;&gt;anat_norm_wf</title>
<path fill="none" stroke="#000000" d="M819.7382,-792.7159C858.2459,-765.415 923.1343,-709.0996 908,-648 854.1212,-430.4818 814.0747,-366.4536 648,-216 634.0021,-203.3188 616.5844,-192.0537 600.8113,-183.137"/>
<polygon fill="#000000" stroke="#000000" points="602.2031,-179.9084 591.7526,-178.1654 598.8352,-186.045 602.2031,-179.9084"/>
</g>
<!-- fs_isrunning (utility) -->
<g id="node7" class="node">
<title>fs_isrunning (utility)</title>
<ellipse fill="none" stroke="#000000" cx="793" cy="-666" rx="105.8812" ry="18"/>
<text text-anchor="middle" x="793" y="-662.3" font-family="Times,serif" font-size="14.00" fill="#000000">fs_isrunning (utility)</text>
</g>
<!-- inputnode (utility)&#45;&gt;fs_isrunning (utility) -->
<g id="edge6" class="edge">
<title>inputnode (utility)&#45;&gt;fs_isrunning (utility)</title>
<path fill="none" stroke="#000000" d="M793,-791.7623C793,-767.201 793,-723.2474 793,-694.3541"/>
<polygon fill="#000000" stroke="#000000" points="796.5001,-694.0896 793,-684.0896 789.5001,-694.0897 796.5001,-694.0896"/>
</g>
<!-- surface_recon_wf -->
<g id="node8" class="node">
<title>surface_recon_wf</title>
<ellipse fill="none" stroke="#000000" cx="635" cy="-522" rx="92.8835" ry="18"/>
<text text-anchor="middle" x="635" y="-518.3" font-family="Times,serif" font-size="14.00" fill="#000000">surface_recon_wf</text>
</g>
<!-- inputnode (utility)&#45;&gt;surface_recon_wf -->
<g id="edge7" class="edge">
<title>inputnode (utility)&#45;&gt;surface_recon_wf</title>
<path fill="none" stroke="#000000" d="M771.4093,-792.2542C745.4231,-769.7389 702.263,-728.4535 678,-684 654.3504,-640.6704 643.162,-583.6294 638.3047,-550.0757"/>
<polygon fill="#000000" stroke="#000000" points="641.7576,-549.4914 636.9424,-540.0541 634.8214,-550.4344 641.7576,-549.4914"/>
</g>
<!-- anat_template_wf&#45;&gt;outputnode (utility) -->
<g id="edge9" class="edge">
<title>anat_template_wf&#45;&gt;outputnode (utility)</title>
<path fill="none" stroke="#000000" d="M386.3604,-727.9467C263.4874,-709.8381 38,-666.7022 38,-594 38,-594 38,-594 38,-234 38,-156.7585 128.3542,-120.3888 200.8564,-103.6385"/>
<polygon fill="#000000" stroke="#000000" points="201.9497,-106.9813 210.957,-101.4029 200.437,-100.1467 201.9497,-106.9813"/>
</g>
<!-- anat_template_wf&#45;&gt;anat_reports_wf -->
<g id="edge10" class="edge">
<title>anat_template_wf&#45;&gt;anat_reports_wf</title>
<path fill="none" stroke="#000000" d="M510.8909,-722.4002C535.2765,-713.1621 564.9328,-700.1053 589,-684 665.273,-632.9594 696.1147,-622.1651 737,-540 821.6213,-369.941 771.0334,-128.4505 749.9101,-46.4802"/>
<polygon fill="#000000" stroke="#000000" points="753.1926,-45.2016 747.258,-36.4249 746.4241,-46.9869 753.1926,-45.2016"/>
</g>
<!-- anat_template_wf&#45;&gt;anat_derivatives_wf -->
<g id="edge11" class="edge">
<title>anat_template_wf&#45;&gt;anat_derivatives_wf</title>
<path fill="none" stroke="#000000" d="M375.526,-731.9622C280.314,-724.3063 135.9446,-709.0044 87,-684 37.457,-658.6899 0,-649.6337 0,-594 0,-594 0,-594 0,-162 0,-98.5007 68.8896,-58.7134 122.1342,-37.4451"/>
<polygon fill="#000000" stroke="#000000" points="123.4699,-40.6812 131.5373,-33.8133 120.9479,-34.1514 123.4699,-40.6812"/>
</g>
<!-- anat_validate (images) -->
<g id="node9" class="node">
<title>anat_validate (images)</title>
<ellipse fill="none" stroke="#000000" cx="464" cy="-666" rx="116.1796" ry="18"/>
<text text-anchor="middle" x="464" y="-662.3" font-family="Times,serif" font-size="14.00" fill="#000000">anat_validate (images)</text>
</g>
<!-- anat_template_wf&#45;&gt;anat_validate (images) -->
<g id="edge8" class="edge">
<title>anat_template_wf&#45;&gt;anat_validate (images)</title>
<path fill="none" stroke="#000000" d="M464,-719.8314C464,-712.131 464,-702.9743 464,-694.4166"/>
<polygon fill="#000000" stroke="#000000" points="467.5001,-694.4132 464,-684.4133 460.5001,-694.4133 467.5001,-694.4132"/>
</g>
<!-- anat_norm_wf&#45;&gt;outputnode (utility) -->
<g id="edge12" class="edge">
<title>anat_norm_wf&#45;&gt;outputnode (utility)</title>
<path fill="none" stroke="#000000" d="M507.2762,-148.3727C464.3493,-136.8401 402.532,-120.2325 355.8018,-107.6781"/>
<polygon fill="#000000" stroke="#000000" points="356.637,-104.2784 346.0713,-105.0639 354.8207,-111.0387 356.637,-104.2784"/>
</g>
<!-- anat_norm_wf&#45;&gt;anat_reports_wf -->
<g id="edge13" class="edge">
<title>anat_norm_wf&#45;&gt;anat_reports_wf</title>
<path fill="none" stroke="#000000" d="M580.1947,-144.6302C613.0737,-118.8989 674.8084,-70.5847 711.785,-41.6465"/>
<polygon fill="#000000" stroke="#000000" points="714.0086,-44.3508 719.7266,-35.4314 709.6944,-38.8382 714.0086,-44.3508"/>
</g>
<!-- anat_norm_wf&#45;&gt;anat_derivatives_wf -->
<g id="edge14" class="edge">
<title>anat_norm_wf&#45;&gt;anat_derivatives_wf</title>
<path fill="none" stroke="#000000" d="M533.0879,-144.9302C502.8349,-124.8957 449.675,-91.8891 400,-72 357.0485,-54.8029 307.0604,-41.9146 265.8952,-33.0503"/>
<polygon fill="#000000" stroke="#000000" points="266.409,-29.5817 255.9015,-30.9396 264.9624,-36.4306 266.409,-29.5817"/>
</g>
<!-- fs_isrunning (utility)&#45;&gt;surface_recon_wf -->
<g id="edge15" class="edge">
<title>fs_isrunning (utility)&#45;&gt;surface_recon_wf</title>
<path fill="none" stroke="#000000" d="M773.3087,-648.0535C745.2445,-622.476 693.6484,-575.4517 662.026,-546.6313"/>
<polygon fill="#000000" stroke="#000000" points="664.1917,-543.8696 654.4432,-539.7204 659.4765,-549.0433 664.1917,-543.8696"/>
</g>
<!-- surface_recon_wf&#45;&gt;outputnode (utility) -->
<g id="edge17" class="edge">
<title>surface_recon_wf&#45;&gt;outputnode (utility)</title>
<path fill="none" stroke="#000000" d="M649.972,-504.222C670.2654,-478.2534 704,-427.6221 704,-378 704,-378 704,-378 704,-234 704,-185.926 684.549,-169.8242 644,-144 603.8589,-118.4356 485.1191,-104.135 396.1487,-96.769"/>
<polygon fill="#000000" stroke="#000000" points="396.2506,-93.2659 386.0009,-95.948 395.6861,-100.2431 396.2506,-93.2659"/>
</g>
<!-- surface_recon_wf&#45;&gt;anat_reports_wf -->
<g id="edge19" class="edge">
<title>surface_recon_wf&#45;&gt;anat_reports_wf</title>
<path fill="none" stroke="#000000" d="M660.0867,-504.4533C691.7127,-480.0533 742,-432.6615 742,-378 742,-378 742,-378 742,-162 742,-121.876 742,-75.4631 742,-46.4177"/>
<polygon fill="#000000" stroke="#000000" points="745.5001,-46.1853 742,-36.1854 738.5001,-46.1854 745.5001,-46.1853"/>
</g>
<!-- surface_recon_wf&#45;&gt;anat_derivatives_wf -->
<g id="edge20" class="edge">
<title>surface_recon_wf&#45;&gt;anat_derivatives_wf</title>
<path fill="none" stroke="#000000" d="M547.5026,-515.8719C399.1039,-503.0512 114,-466.8573 114,-378 114,-378 114,-378 114,-306 114,-208.1142 152.1618,-96.537 171.7246,-45.7703"/>
<polygon fill="#000000" stroke="#000000" points="175.0974,-46.7558 175.4844,-36.1681 168.5793,-44.2036 175.0974,-46.7558"/>
</g>
<!-- applyrefined (fsl) -->
<g id="node11" class="node">
<title>applyrefined (fsl)</title>
<ellipse fill="none" stroke="#000000" cx="509" cy="-450" rx="90.1842" ry="18"/>
<text text-anchor="middle" x="509" y="-446.3" font-family="Times,serif" font-size="14.00" fill="#000000">applyrefined (fsl)</text>
</g>
<!-- surface_recon_wf&#45;&gt;applyrefined (fsl) -->
<g id="edge16" class="edge">
<title>surface_recon_wf&#45;&gt;applyrefined (fsl)</title>
<path fill="none" stroke="#000000" d="M605.1398,-504.937C588.0039,-495.1451 566.2953,-482.7402 547.8443,-472.1968"/>
<polygon fill="#000000" stroke="#000000" points="549.5015,-469.1126 539.0826,-467.19 546.0285,-475.1903 549.5015,-469.1126"/>
</g>
<!-- buffernode (utility) -->
<g id="node12" class="node">
<title>buffernode (utility)</title>
<ellipse fill="none" stroke="#000000" cx="509" cy="-378" rx="98.5829" ry="18"/>
<text text-anchor="middle" x="509" y="-374.3" font-family="Times,serif" font-size="14.00" fill="#000000">buffernode (utility)</text>
</g>
<!-- surface_recon_wf&#45;&gt;buffernode (utility) -->
<g id="edge18" class="edge">
<title>surface_recon_wf&#45;&gt;buffernode (utility)</title>
<path fill="none" stroke="#000000" d="M633.6178,-503.8928C631.2705,-484.2499 624.9553,-452.9049 608,-432 596.5051,-417.8274 580.257,-406.8167 564.2406,-398.5442"/>
<polygon fill="#000000" stroke="#000000" points="565.3982,-395.2152 554.8748,-393.9867 562.3353,-401.5095 565.3982,-395.2152"/>
</g>
<!-- anat_validate (images)&#45;&gt;surface_recon_wf -->
<g id="edge22" class="edge">
<title>anat_validate (images)&#45;&gt;surface_recon_wf</title>
<path fill="none" stroke="#000000" d="M508.5782,-649.3309C529.0099,-640.2962 552.6955,-627.7338 571,-612 591.7106,-594.1981 609.188,-568.3431 620.6183,-548.908"/>
<polygon fill="#000000" stroke="#000000" points="623.663,-550.6342 625.5828,-540.2147 617.5843,-547.1628 623.663,-550.6342"/>
</g>
<!-- brain_extraction_wf -->
<g id="node10" class="node">
<title>brain_extraction_wf</title>
<ellipse fill="none" stroke="#000000" cx="458" cy="-594" rx="103.9815" ry="18"/>
<text text-anchor="middle" x="458" y="-590.3" font-family="Times,serif" font-size="14.00" fill="#000000">brain_extraction_wf</text>
</g>
<!-- anat_validate (images)&#45;&gt;brain_extraction_wf -->
<g id="edge21" class="edge">
<title>anat_validate (images)&#45;&gt;brain_extraction_wf</title>
<path fill="none" stroke="#000000" d="M462.4859,-647.8314C461.8442,-640.131 461.0812,-630.9743 460.3681,-622.4166"/>
<polygon fill="#000000" stroke="#000000" points="463.8529,-622.088 459.5344,-612.4133 456.8771,-622.6694 463.8529,-622.088"/>
</g>
<!-- brain_extraction_wf&#45;&gt;outputnode (utility) -->
<g id="edge23" class="edge">
<title>brain_extraction_wf&#45;&gt;outputnode (utility)</title>
<path fill="none" stroke="#000000" d="M382.9849,-581.4552C271.7363,-560.6942 76,-514.9392 76,-450 76,-450 76,-450 76,-306 76,-221.8508 111.3626,-200.1929 174,-144 190.2705,-129.4035 211.171,-118.05 230.7385,-109.6029"/>
<polygon fill="#000000" stroke="#000000" points="232.3061,-112.7422 240.2111,-105.6881 229.6324,-106.2729 232.3061,-112.7422"/>
</g>
<!-- brain_extraction_wf&#45;&gt;anat_norm_wf -->
<g id="edge24" class="edge">
<title>brain_extraction_wf&#45;&gt;anat_norm_wf</title>
<path fill="none" stroke="#000000" d="M471.5573,-575.956C489.0679,-552.9779 518.9602,-514.9366 533,-504 562.1689,-481.2781 586.4019,-498.0105 608,-468 673.609,-376.8366 676.1955,-316.9709 627,-216 620.7808,-203.2354 609.9233,-192.6001 598.6369,-184.2383"/>
<polygon fill="#000000" stroke="#000000" points="600.6208,-181.3548 590.403,-178.5534 596.6437,-187.1153 600.6208,-181.3548"/>
</g>
<!-- brain_extraction_wf&#45;&gt;surface_recon_wf -->
<g id="edge25" class="edge">
<title>brain_extraction_wf&#45;&gt;surface_recon_wf</title>
<path fill="none" stroke="#000000" d="M499.0522,-577.3008C524.8139,-566.8215 558.191,-553.2443 585.426,-542.1657"/>
<polygon fill="#000000" stroke="#000000" points="586.8365,-545.3705 594.7806,-538.3604 584.1989,-538.8864 586.8365,-545.3705"/>
</g>
<!-- brain_extraction_wf&#45;&gt;applyrefined (fsl) -->
<g id="edge26" class="edge">
<title>brain_extraction_wf&#45;&gt;applyrefined (fsl)</title>
<path fill="none" stroke="#000000" d="M464.4592,-575.7623C473.2346,-550.9846 488.9997,-506.4714 499.2272,-477.5939"/>
<polygon fill="#000000" stroke="#000000" points="502.5539,-478.6844 502.5933,-468.0896 495.9555,-476.3474 502.5539,-478.6844"/>
</g>
<!-- applyrefined (fsl)&#45;&gt;buffernode (utility) -->
<g id="edge27" class="edge">
<title>applyrefined (fsl)&#45;&gt;buffernode (utility)</title>
<path fill="none" stroke="#000000" d="M509,-431.8314C509,-424.131 509,-414.9743 509,-406.4166"/>
<polygon fill="#000000" stroke="#000000" points="512.5001,-406.4132 509,-396.4133 505.5001,-406.4133 512.5001,-406.4132"/>
</g>
<!-- buffernode (utility)&#45;&gt;outputnode (utility) -->
<g id="edge28" class="edge">
<title>buffernode (utility)&#45;&gt;outputnode (utility)</title>
<path fill="none" stroke="#000000" d="M447.2903,-363.8795C358.9059,-342.263 203.3276,-298.5519 171,-252 135.958,-201.5393 205.3841,-143.8713 252.1705,-112.7707"/>
<polygon fill="#000000" stroke="#000000" points="254.1377,-115.6664 260.6127,-107.2804 250.3214,-109.7982 254.1377,-115.6664"/>
</g>
<!-- buffernode (utility)&#45;&gt;anat_norm_wf -->
<g id="edge29" class="edge">
<title>buffernode (utility)&#45;&gt;anat_norm_wf</title>
<path fill="none" stroke="#000000" d="M548.4166,-361.4851C564.8835,-352.6734 582.7618,-340.248 594,-324 621.5671,-284.144 626.9038,-261.0322 609,-216 604.5783,-204.8784 596.6592,-194.7232 588.3599,-186.2955"/>
<polygon fill="#000000" stroke="#000000" points="590.7092,-183.6998 581.0471,-179.3531 585.8898,-188.7765 590.7092,-183.6998"/>
</g>
<!-- t1w_dseg (fsl) -->
<g id="node13" class="node">
<title>t1w_dseg (fsl)</title>
<ellipse fill="none" stroke="#000000" cx="509" cy="-306" rx="76.0865" ry="18"/>
<text text-anchor="middle" x="509" y="-302.3" font-family="Times,serif" font-size="14.00" fill="#000000">t1w_dseg (fsl)</text>
</g>
<!-- buffernode (utility)&#45;&gt;t1w_dseg (fsl) -->
<g id="edge30" class="edge">
<title>buffernode (utility)&#45;&gt;t1w_dseg (fsl)</title>
<path fill="none" stroke="#000000" d="M509,-359.8314C509,-352.131 509,-342.9743 509,-334.4166"/>
<polygon fill="#000000" stroke="#000000" points="512.5001,-334.4132 509,-324.4133 505.5001,-334.4133 512.5001,-334.4132"/>
</g>
<!-- lut_t1w_dseg (utility) -->
<g id="node14" class="node">
<title>lut_t1w_dseg (utility)</title>
<ellipse fill="none" stroke="#000000" cx="290" cy="-234" rx="110.4804" ry="18"/>
<text text-anchor="middle" x="290" y="-230.3" font-family="Times,serif" font-size="14.00" fill="#000000">lut_t1w_dseg (utility)</text>
</g>
<!-- t1w_dseg (fsl)&#45;&gt;lut_t1w_dseg (utility) -->
<g id="edge31" class="edge">
<title>t1w_dseg (fsl)&#45;&gt;lut_t1w_dseg (utility)</title>
<path fill="none" stroke="#000000" d="M464.4181,-291.3429C431.0101,-280.3595 384.9843,-265.2277 348.601,-253.2661"/>
<polygon fill="#000000" stroke="#000000" points="349.687,-249.9389 339.0941,-250.1405 347.5007,-256.5887 349.687,-249.9389"/>
</g>
<!-- fast2bids (utility) -->
<g id="node15" class="node">
<title>fast2bids (utility)</title>
<ellipse fill="none" stroke="#000000" cx="509" cy="-234" rx="90.9839" ry="18"/>
<text text-anchor="middle" x="509" y="-230.3" font-family="Times,serif" font-size="14.00" fill="#000000">fast2bids (utility)</text>
</g>
<!-- t1w_dseg (fsl)&#45;&gt;fast2bids (utility) -->
<g id="edge32" class="edge">
<title>t1w_dseg (fsl)&#45;&gt;fast2bids (utility)</title>
<path fill="none" stroke="#000000" d="M509,-287.8314C509,-280.131 509,-270.9743 509,-262.4166"/>
<polygon fill="#000000" stroke="#000000" points="512.5001,-262.4132 509,-252.4133 505.5001,-262.4133 512.5001,-262.4132"/>
</g>
<!-- lut_t1w_dseg (utility)&#45;&gt;outputnode (utility) -->
<g id="edge34" class="edge">
<title>lut_t1w_dseg (utility)&#45;&gt;outputnode (utility)</title>
<path fill="none" stroke="#000000" d="M290,-215.7623C290,-191.201 290,-147.2474 290,-118.3541"/>
<polygon fill="#000000" stroke="#000000" points="293.5001,-118.0896 290,-108.0896 286.5001,-118.0897 293.5001,-118.0896"/>
</g>
<!-- lut_t1w_dseg (utility)&#45;&gt;anat_norm_wf -->
<g id="edge33" class="edge">
<title>lut_t1w_dseg (utility)&#45;&gt;anat_norm_wf</title>
<path fill="none" stroke="#000000" d="M347.4927,-218.5542C391.6763,-206.684 452.5489,-190.3301 497.4733,-178.2609"/>
<polygon fill="#000000" stroke="#000000" points="498.629,-181.5746 507.3784,-175.5998 496.8127,-174.8143 498.629,-181.5746"/>
</g>
<!-- fast2bids (utility)&#45;&gt;outputnode (utility) -->
<g id="edge36" class="edge">
<title>fast2bids (utility)&#45;&gt;outputnode (utility)</title>
<path fill="none" stroke="#000000" d="M482.5835,-216.6302C443.2037,-190.7367 369.045,-141.9748 325.1338,-113.1017"/>
<polygon fill="#000000" stroke="#000000" points="326.7887,-110.001 316.5102,-107.4314 322.9428,-115.8499 326.7887,-110.001"/>
</g>
<!-- fast2bids (utility)&#45;&gt;anat_norm_wf -->
<g id="edge35" class="edge">
<title>fast2bids (utility)&#45;&gt;anat_norm_wf</title>
<path fill="none" stroke="#000000" d="M521.3648,-215.8314C527.0368,-207.497 533.8698,-197.4567 540.0904,-188.3162"/>
<polygon fill="#000000" stroke="#000000" points="543.0761,-190.1498 545.8089,-179.9134 537.2891,-186.2114 543.0761,-190.1498"/>
</g>
</g>
</svg>
